<svg id="Capa_1" data-name="Capa 1" xmlns="http://www.w3.org/2000/svg" xmlns:xlink="http://www.w3.org/1999/xlink" viewBox="0 0 1023.8 1021.84"><defs><style>.cls-1{fill:url(#linear-gradient);}.cls-2{fill:#fff;}</style><linearGradient id="linear-gradient" x1="0.2" y1="511.02" x2="1024" y2="511.02" gradientUnits="userSpaceOnUse"><stop offset="0" stop-color="#5a9e97"/><stop offset="1" stop-color="#67a86a"/></linearGradient></defs><title>PolisPayIcon</title><path class="cls-1" d="M1024,917.47a104.46,104.46,0,0,1-104.46,104.47H104.63A104.45,104.45,0,0,1,.2,917.47V104.56A104.46,104.46,0,0,1,104.63.1H919.54A104.47,104.47,0,0,1,1024,104.56Z" transform="translate(-0.2 -0.1)"/><path class="cls-2" d="M523.79,167.79c-146.71,0-265.59,118.9-265.59,265.6V871.53l95-105.72V432.71a168.09,168.09,0,1,1,110.21,158v101.4A266.27,266.27,0,0,0,523.79,699c146.67,0,265.59-118.91,265.59-265.59S670.46,167.79,523.79,167.79Z" transform="translate(-0.2 -0.1)"/><path class="cls-2" d="M570.27,440.93a46.48,46.48,0,1,0-46.48,46.49A46.47,46.47,0,0,0,570.27,440.93Z" transform="translate(-0.2 -0.1)"/></svg>